<svg xmlns="http://www.w3.org/2000/svg" viewBox="0 0 320 220" role="img" aria-label="Corn crop illustration">
  <defs>
    <linearGradient id="bg" x1="0" y1="0" x2="0" y2="1">
      <stop offset="0%" stop-color="#e7f7dc"/>
      <stop offset="100%" stop-color="#c7eca9"/>
    </linearGradient>
  </defs>
  <rect width="320" height="220" fill="url(#bg)"/>
  <rect x="0" y="156" width="320" height="64" fill="#7ecb66"/>
  <g fill="#2f8d3b">
    <path d="M60 156 C55 110 70 85 90 70 C80 95 88 122 95 156 Z"/>
    <path d="M130 156 C125 112 142 82 162 66 C152 94 160 124 168 156 Z"/>
    <path d="M200 156 C195 114 212 88 232 72 C222 96 229 126 238 156 Z"/>
  </g>
  <g fill="#f0cd52" stroke="#c9a22f" stroke-width="2">
    <rect x="88" y="86" width="18" height="52" rx="8"/>
    <rect x="158" y="82" width="18" height="56" rx="8"/>
    <rect x="228" y="88" width="18" height="50" rx="8"/>
  </g>
  <text x="16" y="28" font-size="20" font-family="Arial, sans-serif" font-weight="700" fill="#285b2d">Corn</text>
</svg>
