<svg xmlns="http://www.w3.org/2000/svg" viewBox="0 0 320 220" role="img" aria-label="Paddy field illustration">
  <defs>
    <linearGradient id="bg" x1="0" y1="0" x2="0" y2="1">
      <stop offset="0%" stop-color="#dff5e5"/>
      <stop offset="100%" stop-color="#b6e3c1"/>
    </linearGradient>
  </defs>
  <rect width="320" height="220" fill="url(#bg)"/>
  <rect x="0" y="150" width="320" height="70" fill="#7bc47f"/>
  <g stroke="#2f7d32" stroke-width="4" stroke-linecap="round">
    <path d="M50 150 L70 70"/>
    <path d="M90 150 L110 62"/>
    <path d="M130 150 L150 80"/>
    <path d="M170 150 L190 68"/>
    <path d="M210 150 L230 74"/>
    <path d="M250 150 L270 66"/>
  </g>
  <g fill="#d2af57">
    <ellipse cx="70" cy="72" rx="10" ry="5"/>
    <ellipse cx="108" cy="64" rx="10" ry="5"/>
    <ellipse cx="150" cy="82" rx="10" ry="5"/>
    <ellipse cx="190" cy="70" rx="10" ry="5"/>
    <ellipse cx="230" cy="76" rx="10" ry="5"/>
    <ellipse cx="270" cy="68" rx="10" ry="5"/>
  </g>
  <text x="16" y="28" font-size="20" font-family="Arial, sans-serif" font-weight="700" fill="#1f5130">Paddy</text>
</svg>
